<svg xmlns="http://www.w3.org/2000/svg" width="593.79" height="347.848" preserveAspectRatio="xMidYMid" style="display:block" viewBox="0 0 14.586 13.868"><path fill="#e8710a" d="m-.234 4.437-2.35-2.36a6.93 6.93 0 0 0 0 9.79l2.36-2.36a3.59 3.59 0 0 1-.01-5.07Z"/><path fill="#f9ab00" d="m-2.584 2.077 2.35 2.36a3.59 3.59 0 0 1 5.08 0l1.71-2.93-.1-.08a6.93 6.93 0 0 0-9.04.65ZM6.566 12.437l-1.72-2.92a3.59 3.59 0 0 1-5.08 0l-2.35 2.36a6.93 6.93 0 0 0 9 .65l.11-.09M7.226 2.077a6.93 6.93 0 0 0 0 9.79l2.36-2.36a3.592 3.592 0 1 1 5.08-5.08l2.37-2.35a6.93 6.93 0 0 0-9.81 0Z"/><path fill="#e8710a" d="m17.036 2.077-2.35 2.36a3.592 3.592 0 0 1-5.08 5.08l-2.38 2.36a6.933 6.933 0 0 0 9.81-9.8z"/></svg>